<svg width="23" height="23" viewBox="0 0 23 23" fill="none" xmlns="http://www.w3.org/2000/svg">
<path d="M22.7154 21.5337C23.0408 21.2083 23.0408 20.6691 22.7154 20.3437L3.09524 0.723528C2.76986 0.398147 2.23066 0.398147 1.90527 0.723529L0.715307 1.9135C0.389926 2.23888 0.389925 2.77808 0.715307 3.10346L20.3355 22.7236C20.6609 23.049 21.2001 23.049 21.5255 22.7236L22.7154 21.5337Z" fill="#2A86E5"/>
<path d="M1.90495 22.7239C2.23033 23.0493 2.76954 23.0493 3.09492 22.7239L22.7151 3.1037C23.0405 2.77832 23.0405 2.23911 22.7151 1.91373L21.5251 0.723765C21.1998 0.398383 20.6606 0.398383 20.3352 0.723764L0.714984 20.3439C0.389603 20.6693 0.389601 21.2085 0.714983 21.5339L1.90495 22.7239Z" fill="#2A86E5"/>
</svg>
